<svg xmlns="http://www.w3.org/2000/svg" viewBox="29 29 122 122">
  <path fill="#00adff"
    d="M132.88,46.89A60.77,60.77,0,0,0,95.61,29.36a1.79,1.79,0,0,0-1.4,3l21.84,21.85c.12.11,0,.35-.23.23A41.75,41.75,0,0,0,95,46.65a1.22,1.22,0,0,0-.93,2.11l14.84,14.83c.11.12,0,.36-.24.24a28.85,28.85,0,0,0-13.55-4.91.82.82,0,0,0-.7,1.4l25.35,25.36a.82.82,0,0,0,1.41-.7,29,29,0,0,0-4.91-13.56c-.12-.11.12-.35.23-.23l14.37,14.49a1.22,1.22,0,0,0,2.11-.94A42.21,42.21,0,0,0,125.17,64c-.12-.12.11-.36.23-.24l21.85,21.85a1.79,1.79,0,0,0,3-1.4,59.68,59.68,0,0,0-17.41-37.27" />
  <path fill="#f05245"
    d="M47.24,46.89A60.77,60.77,0,0,1,84.51,29.36a1.79,1.79,0,0,1,1.4,3L64.18,54.25c-.12.11,0,.35.23.23a41.79,41.79,0,0,1,20.8-7.83,1.22,1.22,0,0,1,.93,2.11l-15,15c-.12.12,0,.35.23.24A28.89,28.89,0,0,1,85,59a.82.82,0,0,1,.7,1.4L60.32,85.79a.81.81,0,0,1-1.4-.7,28.85,28.85,0,0,1,4.91-13.55c.12-.12-.12-.35-.24-.23L49.22,85.68a1.22,1.22,0,0,1-2.1-.94A42,42,0,0,1,55,64c.12-.12-.12-.36-.23-.24l-22,21.85a1.79,1.79,0,0,1-3-1.4A60.48,60.48,0,0,1,47.24,46.89" />
  <path fill="#1cebcf"
    d="M47.24,133.11a60.77,60.77,0,0,0,37.27,17.53,1.79,1.79,0,0,0,1.4-3L64.18,125.75c-.12-.11,0-.35.23-.23a41.79,41.79,0,0,0,20.8,7.83,1.22,1.22,0,0,0,.93-2.11l-15-15c-.12-.12,0-.35.23-.24A28.89,28.89,0,0,0,85,121a.82.82,0,0,0,.7-1.4L60.32,94.21a.81.81,0,0,0-1.4.7,28.85,28.85,0,0,0,4.91,13.55c.12.12-.12.35-.24.23L49.22,94.32a1.22,1.22,0,0,0-2.1.94A41.63,41.63,0,0,0,55,116.05c.12.12-.12.36-.23.24L32.87,94.44a1.79,1.79,0,0,0-3,1.4,59.68,59.68,0,0,0,17.41,37.27" />
  <path fill="#ffe300"
    d="M132.88,133.11a60.77,60.77,0,0,1-37.27,17.53,1.79,1.79,0,0,1-1.4-3l21.84-21.85c.12-.11,0-.35-.23-.23A41.75,41.75,0,0,1,95,133.35a1.22,1.22,0,0,1-.93-2.11l14.84-14.83c.11-.12,0-.36-.24-.24a28.85,28.85,0,0,1-13.55,4.91.82.82,0,0,1-.7-1.4l25.35-25.36a.82.82,0,0,1,1.41.7,29,29,0,0,1-4.91,13.56c-.12.11.12.35.23.23l14.37-14.49a1.22,1.22,0,0,1,2.11.94,41.81,41.81,0,0,1-7.83,20.79c-.12.12.11.36.23.24l21.85-21.85a1.79,1.79,0,0,1,3,1.4,59.68,59.68,0,0,1-17.41,37.27" />

  <g transform="matrix(9,0,0,9,45,65)">
    <path fill="#333357" stroke="#333357" d="m3.7 7.106c-.174 0-.339-.066-.467-.187l-3.048-2.9c-.232-.221-.241-.588-.02-.819.221-.232.588-.241.819-.02l2.698 2.567 5.291-5.562c.221-.232.588-.241.819-.02.232.221.241.588.02.819l-5.626 5.914c-.122.129-.288.203-.467.208-.006 0-.012 0-.019 0" />
  </g>

</svg>
